<svg xmlns="http://www.w3.org/2000/svg" xmlns:xlink="http://www.w3.org/1999/xlink" viewBox="0 0 245.8 226.25"><defs><style>.cls-1{fill:url(#Degradado_sin_nombre_2);}</style><linearGradient id="Degradado_sin_nombre_2" y1="113.13" x2="245.8" y2="113.13" gradientUnits="userSpaceOnUse"><stop offset="0" stop-color="#fac739"/><stop offset="1" stop-color="#fb0d6a"/></linearGradient></defs><title>step1</title><g id="Capa_2" data-name="Capa 2"><g id="OBJECTS"><path class="cls-1" d="M132.68,0A113.15,113.15,0,0,0,59.43,26.92l3.88,4.57a107.12,107.12,0,1,1-9.66,154H6V160.23H36.78V80H9.62V61.47C24.15,58.46,34.32,54.58,45,48H69.7V160.23H98.5v-6H75.7V42H43.33l-.73.46C31.7,49.26,21.45,53.08,6.05,56.07l-2.43.47V86H30.78v68.22H0v37.24H51.08A113.12,113.12,0,1,0,132.68,0Z"/></g></g></svg>