<svg xmlns="http://www.w3.org/2000/svg" xmlns:xlink="http://www.w3.org/1999/xlink" viewBox="0 0 257 226.25"><defs><style>.cls-1{fill:url(#Degradado_sin_nombre_4);}</style><linearGradient id="Degradado_sin_nombre_4" y1="113.13" x2="257" y2="113.13" gradientUnits="userSpaceOnUse"><stop offset="0" stop-color="#1ad99d"/><stop offset="1" stop-color="#fc17f7"/></linearGradient></defs><title>step4</title><g id="Capa_2" data-name="Capa 2"><g id="OBJECTS"><path class="cls-1" d="M50.11,101.58l-15.46,28.8H67.1v-19.3c0-7.34.52-17.34,1-26.16.14-2.73.27-5.33.38-7.65l.14-3.14h-6L61.79,76C58.2,84.51,54.09,93.19,50.11,101.58Zm11,9.5v13.3H44.68l10.75-20,.07-.13c2.08-4.4,4.2-8.87,6.27-13.36C61.41,98,61.1,105.3,61.1,111.08Zm195.9,2A113.13,113.13,0,0,1,64.41,193.64c-.86-.85-2.47-2.79-3.31-3.66V159.79H0v-31l.41-.7L50.16,42.45h53.15v81.93H118.7v35.41H100.31v-6H112.7V130.38H97.31V48.45H53.61L6,130.45v23.34H67.1v34c.51.52,1,1.05,1.52,1.55A107.13,107.13,0,1,0,143.87,6,106.06,106.06,0,0,0,78.73,28.08l-3.65-4.77A112.08,112.08,0,0,1,143.87,0,113.26,113.26,0,0,1,257,113.12Z"/></g></g></svg>