<svg xmlns="http://www.w3.org/2000/svg" xmlns:xlink="http://www.w3.org/1999/xlink" viewBox="0 0 247.69 226.25"><defs><style>.cls-1{fill:url(#Degradado_sin_nombre_39);}</style><linearGradient id="Degradado_sin_nombre_39" y1="113.13" x2="247.69" y2="113.13" gradientUnits="userSpaceOnUse"><stop offset="0" stop-color="#55eaf7"/><stop offset="0.21" stop-color="#52c0e9"/><stop offset="0.59" stop-color="#4e78d2"/><stop offset="0.86" stop-color="#4b4ac4"/><stop offset="1" stop-color="#4a39be"/></linearGradient></defs><title>step3</title><g id="Capa_2" data-name="Capa 2"><g id="OBJECTS"><path class="cls-1" d="M134.57,0a112,112,0,0,0-68.8,23.32l3.65,4.76A106.11,106.11,0,0,1,134.57,6a107.13,107.13,0,0,1,0,214.25c-28.35,0-56.14-12.16-76.32-32.07H55c-20.14,0-36.43-6.07-47.3-17.57L22,150.81C31.33,158.66,41.5,163,50.89,163c14.91,0,23.82-6.2,23.82-16.58,0-14.19-9.76-19.79-35.76-20.18V105c14.22-.3,31.23-3.12,31.23-19.26,0-10.25-6.54-16.13-17.93-16.13-9.65,0-16.7,3.84-25,10.54L11.67,61.24c13.73-10.88,27.27-16,42.39-16,30.71,0,49.05,14,49.05,37.51,0,12.69-7,21.94-21.3,28.26l-1.79.79v5.08l2.13.65c16.43,5,25.48,16.22,25.48,31.53h6c0-16.3-8.49-28.62-24.06-35.22,13-7.27,19.54-17.7,19.54-31.09,0-13.58-5.3-24.79-15.33-32.4-9.57-7.27-23.31-11.11-39.72-11.11-17.22,0-33.1,6.3-48.55,19.26L3.22,60.44l23.3,28.18,2.32-2c8.44-7.17,14.66-11.06,23.41-11.06,5.12,0,11.93,1,11.93,10.13C64.18,92.29,60.83,99,36,99H33v33.16h3c32.76,0,32.76,7.88,32.76,14.2,0,9.21-11.17,10.58-17.82,10.58-8.73,0-18.46-4.54-27.39-12.78L21,141.87,0,171l1.54,1.8c12,14,30.48,21.41,53.42,21.41h.7A113.12,113.12,0,1,0,134.57,0Z"/></g></g></svg>