<svg xmlns="http://www.w3.org/2000/svg" viewBox="0 0 14.07 13.75"><defs><style>.cls-1{fill:none;stroke:#fff;stroke-linecap:round;stroke-linejoin:round;stroke-width:0.5px;}</style></defs><title>buscarinversiones</title><g id="Capa_2" data-name="Capa 2"><g id="OBJECTS"><path class="cls-1" d="M12.36,1.7A5,5,0,0,0,4.7,7.94l-1,1L3.5,8.69a.19.19,0,0,0-.26,0L.35,11.56a.37.37,0,0,0,0,.5L1.69,13.4a.38.38,0,0,0,.51,0l2.89-2.88a.18.18,0,0,0,0-.25L4.86,10l.94-.93a5,5,0,0,0,6.56-.41A4.92,4.92,0,0,0,12.36,1.7Zm-1,6a3.52,3.52,0,1,1,1-2.5A3.53,3.53,0,0,1,11.36,7.7Z"/><path class="cls-1" d="M9.18,4.76H8.51a.22.22,0,0,1,0-.44H9.84a.45.45,0,1,0,0-.89H9.29V3.22a.45.45,0,1,0-.89,0v.23a1.1,1.1,0,0,0,.11,2.19h.67a.22.22,0,0,1,0,.44H7.85a.45.45,0,0,0-.45.44A.44.44,0,0,0,7.85,7H8.4v.22a.45.45,0,1,0,.89,0V7a1.1,1.1,0,0,0-.11-2.19Z"/></g></g></svg>