<svg xmlns="http://www.w3.org/2000/svg" viewBox="0 0 10.44 9.72"><defs><style>.cls-1{fill:#69d821;}</style></defs><title>misdocumentos_g_1</title><g id="Capa_2" data-name="Capa 2"><g id="OBJECTS"><path class="cls-1" d="M6.87,0H3.57a.93.93,0,0,0-.93.93v.68h.93V.93h3.3v.68H7.8V.93A.93.93,0,0,0,6.87,0Z"/><path class="cls-1" d="M5.63,7.38v.2a.41.41,0,0,1-.82,0v-.2H1.1A2,2,0,0,1,.55,7.3V9.17a.55.55,0,0,0,.55.55H9.34a.55.55,0,0,0,.55-.55V7.3a1.92,1.92,0,0,1-.55.08ZM9.89,2.3H.55A.55.55,0,0,0,0,2.85V5.6A1.1,1.1,0,0,0,1.1,6.7H4.81V6.37a.41.41,0,0,1,.82,0V6.7H9.34a1.1,1.1,0,0,0,1.1-1.1V2.85A.55.55,0,0,0,9.89,2.3Z"/></g></g></svg>