<svg xmlns="http://www.w3.org/2000/svg" viewBox="0 0 10.94 10.22"><defs><style>.cls-1{fill:none;stroke:#fff;stroke-linecap:round;stroke-linejoin:round;stroke-width:0.5px;}</style></defs><title>misdocumentos</title><g id="Capa_2" data-name="Capa 2"><g id="OBJECTS"><path class="cls-1" d="M7.12.25H3.82a.93.93,0,0,0-.93.93v.68h.93V1.18h3.3v.68h.93V1.18A.93.93,0,0,0,7.12.25Z"/><path class="cls-1" d="M5.88,7.63v.2a.41.41,0,0,1-.82,0v-.2H1.35A2,2,0,0,1,.8,7.55V9.42a.55.55,0,0,0,.55.55H9.59a.55.55,0,0,0,.55-.55V7.55a1.92,1.92,0,0,1-.55.08Zm4.26-5.08H.8a.55.55,0,0,0-.55.55V5.85A1.1,1.1,0,0,0,1.35,7H5.06V6.62a.41.41,0,0,1,.82,0V7H9.59a1.1,1.1,0,0,0,1.1-1.1V3.1A.55.55,0,0,0,10.14,2.55Z"/></g></g></svg>