<svg xmlns="http://www.w3.org/2000/svg" viewBox="0 0 11.72 11.72"><defs><style>.cls-1{fill:none;stroke:#fff;stroke-linecap:round;stroke-linejoin:round;stroke-width:0.5px;}</style></defs><title>misinversiones</title><g id="Capa_2" data-name="Capa 2"><g id="OBJECTS"><path class="cls-1" d="M6.71,4.84a.34.34,0,0,0-.34-.34H5a.34.34,0,0,0-.34.34V9.6h2Zm2.89.68a.34.34,0,0,0-.34-.34H7.9a.34.34,0,0,0-.34.34V9.6h2ZM11,10.45H.76a.51.51,0,0,0,0,1H11a.51.51,0,0,0,0-1ZM3.82,6.54a.34.34,0,0,0-.34-.34H2.12a.34.34,0,0,0-.34.34V9.6h2Z"/><path class="cls-1" d="M10.09.25,8.56.47A.3.3,0,0,0,8.39,1l.36.36L7.51,2.57,5.49,1a.51.51,0,0,0-.63,0L1.63,3.7a.51.51,0,0,0-.07.72A.5.5,0,0,0,2,4.6a.48.48,0,0,0,.32-.11l2.92-2.4L7.25,3.65a.51.51,0,0,0,.67,0L9.47,2.06l.23.23a.3.3,0,0,0,.51-.17L10.43.59A.3.3,0,0,0,10.09.25Z"/></g></g></svg>