<svg xmlns="http://www.w3.org/2000/svg" xmlns:xlink="http://www.w3.org/1999/xlink" viewBox="0 0 251.42 226.25"><defs><style>.cls-1{fill:url(#Degradado_sin_nombre_7);}</style><linearGradient id="Degradado_sin_nombre_7" y1="113.13" x2="251.42" y2="113.13" gradientUnits="userSpaceOnUse"><stop offset="0" stop-color="#fb0e66"/><stop offset="1" stop-color="#1cb2e0"/></linearGradient></defs><title>step2</title><g id="Capa_2" data-name="Capa 2"><g id="OBJECTS"><path class="cls-1" d="M138.29,0A112.09,112.09,0,0,0,69.52,23.3l3.65,4.76A106.13,106.13,0,0,1,138.29,6a107.13,107.13,0,1,1,0,214.25c-29.56,0-58.89-13.17-79.09-34.78H9V167.6c35-32.15,60.2-55.4,60.2-76,0-13.79-7.72-22-20.65-22-9.95,0-17.66,6.6-23.53,12.35L8.38,65.31c14.37-14.56,27-20,45.59-20,27.71,0,46.34,17.71,46.34,44.07,0,22.14-21.56,47-40.34,66.25l-6,6.14,8.52-1.07a228,228,0,0,1,23.62-1.78h21v29.59h6V152.88h-27c-4.37,0-10.45.41-16.12.94,18-19.09,36.32-42.52,36.32-64.48,0-14.74-5.1-27.33-14.75-36.41C82.07,44,69.07,39.27,54,39.27c-21.1,0-35.67,6.74-52,24L0,65.41l25,25,2.12-2.13c7-6.94,13.36-12.7,21.42-12.7,9.58,0,14.65,5.54,14.65,16,0,18-25.77,41.69-58.39,71.7L3,165v26.5H56.7A113.12,113.12,0,1,0,138.29,0Z"/></g></g></svg>