<svg xmlns="http://www.w3.org/2000/svg" viewBox="0 0 81.84 14.8"><defs><style>.cls-1{font-size:4.94px;font-family:Poppins-LightItalic, Poppins;font-weight:300;font-style:italic;}.cls-2{fill:#030825;}.cls-3{fill:#69d821;}.cls-4{fill:#0d142e;}</style></defs><title>logo</title><g id="Capa_2" data-name="Capa 2"><g id="OBJECTS"><text class="cls-1" transform="translate(48.59 12.02)">Bienes Raíces</text><path class="cls-2" d="M21.73,4.82c-.5.72-1,1.35-1.39,2a.6.6,0,0,1-.64.3c-.32,0-.28-.26-.35-.43a14.4,14.4,0,0,0-.85-1.9c-.13.87-.27,1.73-.41,2.6,0,.18,0,.47-.18.51a3.51,3.51,0,0,1-1,0c-.12,0-.05-.16,0-.24.25-1.6.5-3.19.74-4.79,0-.22.11-.32.36-.32.86,0,.86,0,1.15.77L20,5.66a29.55,29.55,0,0,0,1.71-2.52c.36-.67.88-.57,1.43-.58.21,0,.18.12.16.25-.25,1.63-.51,3.25-.77,4.88,0,.15-.07.22-.23.24-.82.13-.94,0-.83-.77.08-.52.17-1,.25-1.57A1.36,1.36,0,0,0,21.73,4.82Z"/><path class="cls-2" d="M60,4.44c1-.8,2-.71,2.53.24a1.64,1.64,0,0,1,1.37-.78,1.3,1.3,0,0,1,1.35,1.47c-.08.79-.25,1.56-.36,2.35,0,.32-.28.2-.44.2-.72,0-.73,0-.62-.69.08-.46.16-.93.22-1.39s-.12-.83-.5-.91a.8.8,0,0,0-1,.63c-.15.61-.22,1.23-.34,1.85,0,.18,0,.46-.19.5a2.84,2.84,0,0,1-.92,0c-.13,0-.06-.19,0-.29.07-.53.16-1.06.25-1.58s-.06-1-.49-1.1-.9.25-1,.86S59.6,7,59.55,7.56c0,.34-.18.38-.46.37-.73,0-.74,0-.63-.68.15-1,.33-2,.47-3,.09-.58.52-.26.8-.31S60,4,60,4.44Z"/><path class="cls-2" d="M47.39,6.31a5.19,5.19,0,0,0,.35.42c.44.46.44.46-.12.81A2.75,2.75,0,0,1,43.37,6a3,3,0,0,1,1.4-3.11,3,3,0,0,1,3.4.17c.26.21.38.39,0,.59a2.07,2.07,0,0,0-.39.29c-.14.12-.23.12-.39,0a1.65,1.65,0,0,0-2-.11,1.92,1.92,0,0,0-.83,1.93,1.49,1.49,0,0,0,1.86,1.11A2,2,0,0,0,47.39,6.31Z"/><path class="cls-2" d="M50.26,4.42a1.81,1.81,0,0,1,1.28-.52,1.29,1.29,0,0,1,1.28,1.25,16.13,16.13,0,0,1-.35,2.59c0,.34-.33.18-.51.18-.65,0-.65,0-.54-.64.08-.46.16-.92.23-1.38s-.12-.86-.52-1a.83.83,0,0,0-1,.61A16.25,16.25,0,0,0,49.8,7.4c0,.4-.18.58-.62.54-.6-.05-.61,0-.52-.62.23-1.47.48-2.93.68-4.4.07-.46.35-.36.62-.36.61,0,.61,0,.5.59C50.39,3.54,50.34,3.94,50.26,4.42Z"/><path class="cls-2" d="M33,4c-.84,1.49-1.61,2.91-2.43,4.29a1.78,1.78,0,0,1-2.31.85c-.13,0-.4-.09-.23-.31s.09-.64.52-.61c.16,0,.32.06.48.06.48,0,.64-.26.53-.72-.25-1-.49-2.11-.75-3.15-.09-.32-.05-.42.31-.42.78,0,.77,0,.92.76.11.58.22,1.16.36,1.86.41-.78.77-1.44,1.08-2.12a.7.7,0,0,1,.8-.5A5.45,5.45,0,0,0,33,4Z"/><path class="cls-2" d="M75.69,7.93c-.61,0-.6,0-.5-.61.24-1.44.48-2.89.68-4.34,0-.35.16-.48.5-.42a1.27,1.27,0,0,0,.39,0c.3,0,.34.08.29.35-.26,1.56-.52,3.11-.74,4.67C76.24,8.07,75.92,7.89,75.69,7.93Z"/><path class="cls-2" d="M74.37,2.59c.52-.15.57.06.49.52-.26,1.47-.49,2.95-.7,4.44-.06.45-.33.38-.61.38-.63,0-.62,0-.52-.62.22-1.38.45-2.77.65-4.15C73.74,2.72,73.83,2.39,74.37,2.59Z"/><path class="cls-2" d="M34.48,4.55a1.86,1.86,0,0,1,1.08-.63c.29,0,.48,0,.37.35a1.22,1.22,0,0,0-.07.38c0,.28-.12.38-.41.4A1.2,1.2,0,0,0,34.2,6.21,9.45,9.45,0,0,0,34,7.36c0,.43-.17.62-.64.58s-.61,0-.51-.61c.16-.94.31-1.88.46-2.82.09-.59.09-.57.79-.56S34.24,4.39,34.48,4.55Z"/><path class="cls-2" d="M72,4c.56-.16.55.11.47.55-.19,1-.34,2-.47,3,0,.33-.18.44-.5.39a2.06,2.06,0,0,0-.43,0c-.25,0-.29-.07-.25-.31.18-1,.37-2.06.5-3.1C71.36,4.09,71.51,3.88,72,4Z"/><path class="cls-2" d="M72.85,2.88a.64.64,0,0,1-.67.66A.65.65,0,0,1,71.45,3a.61.61,0,0,1,.64-.68C72.54,2.25,72.84,2.48,72.85,2.88Z"/><path class="cls-2" d="M70.05,4.7c-.53-.85-1.38-1-2.6-.46.07-.49.14-.94.22-1.4,0-.19,0-.31-.23-.28a2.35,2.35,0,0,1-.53,0c-.28,0-.36.09-.4.34-.22,1.47-.46,2.93-.69,4.4-.1.68-.09.65.59.64.39,0,.28-.36.45-.51a1.94,1.94,0,0,0,2.7.05A2.28,2.28,0,0,0,70.05,4.7ZM68.05,7a.93.93,0,0,1-.93-1,1.17,1.17,0,0,1,1.16-1.12.94.94,0,0,1,.93.91A1.16,1.16,0,0,1,68.05,7Z"/><path class="cls-2" d="M57.72,4c-.44,0-.75,0-.8.57a1.92,1.92,0,0,0-2.71-.11,2.22,2.22,0,0,0-.42,2.89,1.62,1.62,0,0,0,1,.67,1.92,1.92,0,0,0,1.75-.52c-.16.63.22.46.46.48s.45.06.5-.29c.16-1.11.33-2.23.52-3.34C58,4.06,58,4,57.72,4ZM55.49,7a.92.92,0,0,1-.93-1,1.15,1.15,0,0,1,1.15-1.12.91.91,0,0,1,.92,1A1.13,1.13,0,0,1,55.49,7Z"/><path class="cls-2" d="M81.11,4c-.31.06-.14.44-.38.53a1.86,1.86,0,0,0-2.61-.12,2.26,2.26,0,0,0-.49,2.89c.6.87,1.5,1,2.7.28,0,.53.33.35.6.39s.38-.16.42-.43c.15-1,.31-1.94.47-2.91C81.91,4,81.74,3.83,81.11,4ZM79.36,7a.91.91,0,0,1-.93-1,1.15,1.15,0,0,1,1.14-1.13.9.9,0,0,1,.93,1A1.14,1.14,0,0,1,79.36,7Z"/><path class="cls-2" d="M40.2,3.94c-.46,0-.7.12-.75.58a1.93,1.93,0,0,0-2.78,0,2.2,2.2,0,0,0-.27,2.94A1.8,1.8,0,0,0,39,7.5c-.09.64.35.37.6.43S40,7.8,40,7.55c.16-1.06.33-2.13.5-3.19C40.55,4.09,40.54,4,40.2,3.94ZM38,7a.89.89,0,0,1-.91-.91,1.13,1.13,0,0,1,1.14-1.17.9.9,0,0,1,.92.91A1.14,1.14,0,0,1,38,7Z"/><path class="cls-2" d="M27.58,4c-.38,0-.23.41-.42.54a1.91,1.91,0,0,0-2.73,0,2.23,2.23,0,0,0-.31,2.94,1.81,1.81,0,0,0,2.63.09c-.09.41.1.48.38.45s.56.12.61-.36c.11-1,.31-2,.46-3C28.3,3.92,28.25,3.89,27.58,4ZM25.72,7a1,1,0,0,1-.9-1A1.17,1.17,0,0,1,26,4.91a.92.92,0,0,1,.9.94A1.18,1.18,0,0,1,25.72,7Z"/><circle class="cls-3" cx="6.9" cy="12.25" r="1.39"/><circle class="cls-3" cx="4.18" cy="9.54" r="1.39"/><circle class="cls-3" cx="1.39" cy="12.33" r="1.39"/><circle class="cls-3" cx="6.75" cy="6.97" r="1.39"/><circle class="cls-3" cx="9.54" cy="4.18" r="1.39"/><circle class="cls-3" cx="12.33" cy="1.39" r="1.39"/><circle class="cls-3" cx="6.75" cy="1.39" r="1.39"/><circle class="cls-3" cx="4.18" cy="4.18" r="1.39"/><circle class="cls-3" cx="1.39" cy="6.97" r="1.39"/><circle class="cls-3" cx="12.33" cy="6.97" r="1.39"/><circle class="cls-4" cx="9.46" cy="9.69" r="1.39"/></g></g></svg>