<svg xmlns="http://www.w3.org/2000/svg" viewBox="0 0 10.89 10.89"><defs><style>.cls-1{fill:#69d821;}</style></defs><title>configuraciones_g_1</title><g id="Capa_2" data-name="Capa 2"><g id="OBJECTS"><path class="cls-1" d="M9.92,6.19l.95-.28a5.63,5.63,0,0,0,0-1.3l-1-.21a3.5,3.5,0,0,0-.17-.55l.69-.71A5.73,5.73,0,0,0,9.69,2l-.94.3a5.33,5.33,0,0,0-.42-.4L8.56,1A5.27,5.27,0,0,0,7.41.37l-.66.73A2.58,2.58,0,0,0,6.33,1L6.19,1,5.91,0a5.63,5.63,0,0,0-1.3,0L4.4,1a5,5,0,0,0-.55.16L3.14.51A5.73,5.73,0,0,0,2,1.2l.3.94a5.33,5.33,0,0,0-.4.42L1,2.33A5.27,5.27,0,0,0,.37,3.48l.73.66A2.58,2.58,0,0,0,1,4.56.78.78,0,0,0,1,4.7L0,5a5.63,5.63,0,0,0,0,1.3l1,.21c.05.19.11.37.17.55l-.68.71A5.73,5.73,0,0,0,1.2,8.86l.94-.3a5.33,5.33,0,0,0,.42.4l-.23.95a5.74,5.74,0,0,0,1.15.61l.66-.73.42.11.14,0,.27.95a5.69,5.69,0,0,0,1.31,0l.21-1L7,9.7l.71.68a5.73,5.73,0,0,0,1.11-.69l-.3-.94A5.33,5.33,0,0,0,9,8.33l.95.23a5.74,5.74,0,0,0,.61-1.15l-.73-.66a4.26,4.26,0,0,0,.11-.42A.78.78,0,0,0,9.92,6.19Zm-.86,0a3.69,3.69,0,1,1-2.9-4.33A3.69,3.69,0,0,1,9.06,6.16Z"/></g></g></svg>