<svg xmlns="http://www.w3.org/2000/svg" viewBox="0 0 11.39 11.39"><defs><style>.cls-1{fill:none;stroke:#fff;stroke-linecap:round;stroke-linejoin:round;stroke-width:0.5px;}</style></defs><title>configuraciones</title><g id="Capa_2" data-name="Capa 2"><g id="OBJECTS"><path class="cls-1" d="M10.17,6.44l.95-.28a5.63,5.63,0,0,0,0-1.3l-1-.21a3.5,3.5,0,0,0-.17-.55l.69-.71a5.73,5.73,0,0,0-.69-1.11L9,2.58a5.33,5.33,0,0,0-.42-.4l.23-1A5.27,5.27,0,0,0,7.66.62L7,1.35a2.58,2.58,0,0,0-.42-.11l-.14,0L6.16.27a5.63,5.63,0,0,0-1.3,0l-.21,1a5,5,0,0,0-.55.16L3.39.76a5.73,5.73,0,0,0-1.11.69l.3.94a5.33,5.33,0,0,0-.4.42l-1-.23A5.27,5.27,0,0,0,.62,3.73l.73.66a2.58,2.58,0,0,0-.11.42.78.78,0,0,0,0,.14l-.95.28a5.63,5.63,0,0,0,0,1.3l1,.21c.05.19.11.37.17.55L.76,8a5.73,5.73,0,0,0,.69,1.11l.94-.3a5.33,5.33,0,0,0,.42.4l-.23.95a5.74,5.74,0,0,0,1.15.61L4.39,10l.42.11.14,0,.27.95a5.69,5.69,0,0,0,1.31,0l.21-1L7.29,10l.71.68a5.73,5.73,0,0,0,1.11-.69L8.81,9a5.33,5.33,0,0,0,.4-.42l.95.23a5.74,5.74,0,0,0,.61-1.15L10,7a4.26,4.26,0,0,0,.11-.42A.78.78,0,0,0,10.17,6.44Zm-.86,0a3.69,3.69,0,1,1-2.9-4.33A3.69,3.69,0,0,1,9.31,6.41Z"/></g></g></svg>