<svg xmlns="http://www.w3.org/2000/svg" viewBox="0 0 11.22 11.22"><defs><style>.cls-1{fill:#69d821;}</style></defs><title>misinversiones_g</title><g id="Capa_2" data-name="Capa 2"><g id="OBJECTS"><path class="cls-1" d="M6.46,4.59a.34.34,0,0,0-.34-.34H4.76a.34.34,0,0,0-.34.34V9.35h2Zm2.89.68A.34.34,0,0,0,9,4.93H7.65a.34.34,0,0,0-.34.34V9.35h2Zm1.36,4.93H.51a.51.51,0,0,0,0,1h10.2a.51.51,0,0,0,0-1ZM3.57,6.29A.34.34,0,0,0,3.23,6H1.87a.34.34,0,0,0-.34.34V9.35h2Z"/><path class="cls-1" d="M9.84,0,8.31.22a.3.3,0,0,0-.17.51l.36.36L7.26,2.32,5.24.78a.51.51,0,0,0-.63,0L1.38,3.45a.51.51,0,0,0-.07.72.5.5,0,0,0,.39.18A.48.48,0,0,0,2,4.24l2.92-2.4L7,3.4a.51.51,0,0,0,.67,0L9.22,1.81,9.45,2A.3.3,0,0,0,10,1.87L10.18.34A.3.3,0,0,0,9.84,0Z"/></g></g></svg>