<svg xmlns="http://www.w3.org/2000/svg" viewBox="0 0 23.06 23.07"><defs><style>.cls-1{fill:#fff;}.cls-2{fill:#b5b5b7;}</style></defs><title>user</title><g id="Capa_2" data-name="Capa 2"><g id="OBJECTS"><path class="cls-1" d="M23.06,11.54a11.46,11.46,0,0,1-3.65,8.4,10.65,10.65,0,0,1-.9.76,8.42,8.42,0,0,1-1.3.87,11.54,11.54,0,0,1-11.38,0,9.17,9.17,0,0,1-1.28-.85,11.06,11.06,0,0,1-.9-.77,11.53,11.53,0,1,1,19.41-8.41Z"/><path class="cls-2" d="M15.24,8.49a3.71,3.71,0,1,1-3.71-3.71A3.71,3.71,0,0,1,15.24,8.49Z"/><path class="cls-2" d="M19.41,19.94a10.65,10.65,0,0,1-.9.76,8.42,8.42,0,0,1-1.3.87,11.54,11.54,0,0,1-11.38,0,9.17,9.17,0,0,1-1.28-.85,11.06,11.06,0,0,1-.9-.77c1.27-3.61,4.33-6.14,7.89-6.14S18.11,16.34,19.41,19.94Z"/></g></g></svg>